<?xml version="1.0" encoding="UTF-8"?>
<svg width="1200px" height="1200px" viewBox="0 0 1200 1200" version="1.1" xmlns="http://www.w3.org/2000/svg" xmlns:xlink="http://www.w3.org/1999/xlink">
    <!-- Generator: Sketch 54.1 (76490) - https://sketchapp.com -->
    <title>Group 44</title>
    <desc>Created with Sketch.</desc>
    <g id="Page-2" stroke="none" stroke-width="1" fill="none" fill-rule="evenodd">
        <g id="Artboard" transform="translate(-6963.000000, -6245.000000)">
            <g id="Group-44" transform="translate(6963.000000, 6245.000000)">
                <rect id="Rectangle-Copy-41" x="0" y="0" width="1200" height="1200"></rect>
                <g id="资源-10" transform="translate(137.000000, 115.000000)" fill-rule="nonzero">
                    <path d="M453,960 C416,960 373,925 373,880 C373,868.954305 381.954305,860 393,860 C404.045695,860 413,868.954305 413,880 C413,902.1 437.2,920 453,920 C463.683009,920.248866 474.002403,916.114558 481.55848,908.55848 C489.114558,901.002403 493.248866,890.683009 493,880 L493,30 C493,18.954305 501.954305,10 513,10 C524.045695,10 533,18.954305 533,30 L533,880 C533.216086,901.282827 524.856946,921.756932 509.806939,936.806939 C494.756932,951.856946 474.282827,960.216086 453,960 Z" id="Path" fill="#EAEAEA"></path>
                    <path d="M453,960 C416,960 373,925 373,880 C373,868.954305 381.954305,860 393,860 C404.045695,860 413,868.954305 413,880 C415.382332,901.025787 431.974213,917.617668 453,920 C463.683009,920.248866 474.002403,916.114558 481.55848,908.55848 C489.114558,901.002403 493.248866,890.683009 493,880 L493,30 C493,18.954305 501.954305,10 513,10 C524.045695,10 533,18.954305 533,30 L533,880 C533.216086,901.282827 524.856946,921.756932 509.806939,936.806939 C494.756932,951.856946 474.282827,960.216086 453,960 Z" id="Path" fill="#FFFFFF"></path>
                    <path d="M513,20 C518.522847,20 523,24.4771525 523,30 L523,880 C523.189075,898.622474 515.874828,916.537315 502.706072,929.706072 C489.537315,942.874828 471.622474,950.189075 453,950 C421.3,950 383,918.8 383,880 C383,874.477153 387.477153,870 393,870 C398.522847,870 403,874.477153 403,880 C405.364348,906.573399 426.426601,927.635652 453,930 C466.351664,930.30388 479.246685,925.133679 488.690182,915.690182 C498.133679,906.246685 503.30388,893.351664 503,880 L503,30 C503,24.4771525 507.477153,20 513,20 L513,20 Z M513,0 C496.431458,1.42108547e-13 483,13.4314575 483,30 L483,880 C483.28236,888.039734 480.21242,895.83551 474.523965,901.523965 C468.83551,907.21242 461.039734,910.28236 453,910 C437.528614,907.610623 425.389377,895.471386 423,880 C423,863.431458 409.568542,850 393,850 C376.431458,850 363,863.431458 363,880 C363,930.7 411.4,970 453,970 C476.943181,970.243097 499.976548,960.839064 516.907806,943.907806 C533.839064,926.976548 543.243097,903.943181 543,880 L543,30 C543,13.4314575 529.568542,0 513,0 Z" id="Shape" fill="#141325"></path>
                    <path d="M1003.8,453.9 C940.374562,234.284005 739.341276,83.0936006 510.75,83.0936006 C282.158724,83.0936006 81.125438,234.284005 17.7,453.9 C17.7,453.9 69.7,423 156.3,423 C210.012141,423.350149 263.175749,433.833591 313,453.9 C313,453.9 381.3,423 506.3,423 C631.3,423 706.3,454.2 706.3,454.2 C706.3,454.2 791.3,423 854.7,423 C918.1,423 1003.8,453.9 1003.8,453.9 Z" id="Path" fill="#5A94F3"></path>
                    <path d="M956.4,341.8 C929.4,333.3 876.4,318.4 833.7,318.4 C774.3,318.4 694.4,347.6 694.4,347.6 C694.4,347.6 624.4,318.4 506.6,318.4 C388.8,318.4 325.1,347.6 325.1,347.6 C278.297055,328.727123 228.363088,318.821744 177.9,318.4 C140.032372,317.977844 102.430276,324.765226 67.1,338.4 C45.9812763,374.704353 29.3909685,413.459849 17.7,453.8 C17.7,453.8 69.7,423 156.3,423 C210.012141,423.350149 263.175749,433.833591 313,453.9 C313,453.9 381.3,423 506.3,423 C631.3,423 706.3,454.2 706.3,454.2 C706.3,454.2 791.3,423 854.7,423 C918.1,423 1003.8,454.2 1003.8,454.2 C992.533879,414.978919 976.621055,377.244712 956.4,341.8 L956.4,341.8 Z" id="Path" fill="#236CE4"></path>
                    <path d="M707.1,497.4 C701.577153,497.4 697.1,492.922847 697.1,487.4 C690.154855,335.405283 621.278504,192.882551 506.5,93 C503.425433,90.7784968 501.87243,87.0086908 502.490063,83.2661554 C503.107696,79.52362 505.789626,76.4527075 509.414953,75.3368918 C513.04028,74.2210761 516.984832,75.2524673 519.6,78 C638.717904,181.536592 710.115525,329.429083 717.1,487.1 C717.1,489.752165 716.046432,492.295704 714.171068,494.171068 C712.295704,496.046432 709.752165,497.1 707.1,497.1 L707.1,497.4 Z" id="Path" fill="#141325"></path>
                    <path d="M313,497.4 L313,497.4 C307.477153,497.4 303,492.922847 303,487.4 C309.720314,329.578763 380.983099,181.449069 500.1,77.7 C504.324978,74.1377634 510.637763,74.6750217 514.2,78.9 C517.762237,83.1249783 517.224978,89.4377634 513,93 C398.346365,193.083133 329.684197,335.755891 323,487.8 C322.785188,493.166039 318.370335,497.404298 313,497.4 Z" id="Path" fill="#141325"></path>
                    <path d="M10.3,490.1 C9.46952946,490.197686 8.63047054,490.197686 7.8,490.1 C5.22493335,489.440989 3.01818715,487.783893 1.66722051,485.494755 C0.316253878,483.205617 -0.0677620195,480.472811 0.6,477.9 C3.5,467.1 6.7,456.4 10.6,446 C11.7253866,442.605977 14.5759765,440.070157 18.07798,439.347759 C21.5799836,438.62536 25.2013632,439.826134 27.5779801,442.497759 C29.954597,445.169384 30.7253867,448.905977 29.6,452.3 C26.3,462.3 23.2,472.3 20.5,483 C19.161864,487.448565 14.9364159,490.389809 10.3,490.1 Z" id="Path" fill="#141325"></path>
                    <path d="M1009,490.1 C1004.35131,490.259235 1000.20664,487.192179 999,482.7 C996.3,472.7 993.3,462 989.9,452 C989.048862,449.467542 989.246483,446.699799 990.448795,444.31396 C991.651108,441.928121 993.758127,440.122594 996.3,439.3 C1001.54638,437.592085 1007.18474,440.456015 1008.9,445.7 C1012.4,455.7 1015.6,466.8 1018.4,477.6 C1019.79725,482.928045 1016.62277,488.382783 1011.3,489.8 C1010.5454,489.977258 1009.77482,490.077769 1009,490.1 Z" id="Path" fill="#141325"></path>
                    <path d="M17.7,463.9 C15.524824,463.871243 13.4183491,463.133977 11.7,461.8 C8.40896491,459.3165 6.97948266,455.067761 8.1,451.1 C72.769949,227.21739 277.714326,73.093724 510.75,73.093724 C743.785674,73.093724 948.730051,227.21739 1013.4,451.1 C1014.40625,454.694667 1013.3266,458.550531 1010.6,461.1 C1007.90289,463.578727 1004.06636,464.384398 1000.6,463.2 C999.7,463.2 915.7,432.6 854.9,432.6 C794.1,432.6 710.6,463 709.8,463 C707.602924,463.794328 705.197076,463.794328 703,463 C701.8,463 627.6,433 506.3,433 C385,433 317.8,463 317.2,463 C314.592341,464.172193 311.607659,464.172193 309,463 C260.408516,443.591015 208.622721,433.416988 156.3,433 C73,433 23,462.2 23,463 C21.3387116,463.746146 19.5144699,464.055923 17.7,463.9 L17.7,463.9 Z M506.3,413 C617.9,413 689.7,437.2 706.3,443.5 C723.7,437.2 797,413 854.7,413 C901.6,413 959.3,429.2 988.5,438.5 C920.51334,233.068357 728.804082,94.1042743 512.415885,93.4014208 C296.027688,92.6985672 103.419743,230.414344 34.1,435.4 C73.0228817,420.176235 114.508011,412.57176 156.3,413 C209.935506,413.260587 263.060989,423.431388 313,443 C329.9,436.3 396.3,413 506.3,413 Z" id="Shape" fill="#141325"></path>
                    <path d="M839.7,274.7 C836.89358,274.718991 834.208345,273.557808 832.3,271.5 C801.685158,239.437243 766.177086,212.434906 727.1,191.5 C723.973926,189.713672 722.038309,186.395296 722.022278,182.794873 C722.006246,179.19445 723.912235,175.858968 727.022278,174.044873 C730.13232,172.230778 733.973926,172.213672 737.1,174 C777.989588,196.112839 815.116682,224.565693 847.1,258.3 C850.842413,262.336568 850.618935,268.638657 846.6,272.4 C844.670221,274.005562 842.20716,274.826582 839.7,274.7 Z" id="Path" fill="#FFFFFF"></path>
                    <path d="M685.9,169.6 C684.518817,169.579487 683.156863,169.273047 681.9,168.7 C665.110539,161.189974 647.878527,154.711272 630.3,149.3 C627.661709,148.666397 625.394139,146.987917 624.017615,144.649711 C622.64109,142.311504 622.273791,139.514316 623,136.9 C624.547378,131.648551 630.029841,128.617595 635.3,130.1 C653.821811,135.560213 671.961532,142.24151 689.6,150.1 C694.005307,151.974384 696.464128,156.708112 695.464341,161.390042 C694.464554,166.071972 690.28667,169.388487 685.5,169.3 L685.9,169.6 Z" id="Path" fill="#FFFFFF"></path>
                    <path d="M168,288 C164.074922,287.995035 160.515696,285.694289 158.899607,282.117346 C157.283519,278.540403 157.909443,274.348776 160.5,271.4 C163.9,267.5 245.9,173.9 332.7,148.4 C336.12975,147.399656 339.832646,148.30505 342.413844,150.775129 C344.995042,153.245207 346.062396,156.904707 345.213844,160.375129 C344.365292,163.845551 341.72975,166.599656 338.3,167.6 C257.1,191.5 176.4,283.6 175.5,284.6 C173.604302,286.757843 170.872272,287.996363 168,288 Z" id="Path" fill="#FFFFFF"></path>
                    <path d="M598,283 C593.263385,283.126631 589.088118,279.911676 588,275.3 C577.058877,233.041557 553.891518,194.951079 521.4,165.8 C518.613328,163.549227 517.239111,159.982755 517.795002,156.44404 C518.350893,152.905325 520.752439,149.931982 524.095002,148.64404 C527.437564,147.356098 531.213328,147.949227 534,150.2 C570.054955,182.048647 595.640558,224.05226 607.4,270.7 C608.652036,276.05421 605.346344,281.414792 600,282.7 C599.347648,282.879235 598.67623,282.979948 598,283 Z" id="Path" fill="#FFFFFF"></path>
                    <path d="M510.5,880.5 C504.977153,880.5 500.5,876.022847 500.5,870.5 L500.5,778 C500.5,772.477153 504.977153,768 510.5,768 C516.022847,768 520.5,772.477153 520.5,778 L520.5,870.5 C520.5,876.022847 516.022847,880.5 510.5,880.5 Z" id="Path" fill="#FFFFFF"></path>
                    <path d="M453,973 C411.4,973 363,933.7 363,883 C363,866.431458 376.431458,853 393,853 C409.568542,853 423,866.431458 423,883 C425.14106,898.595998 437.404002,910.85894 453,913 C461.039734,913.28236 468.83551,910.21242 474.523965,904.523965 C480.21242,898.83551 483.28236,891.039734 483,883 L483,773 C483,756.431458 496.431458,743 513,743 C529.568542,743 543,756.431458 543,773 L543,883 C543.270664,906.951434 533.875488,930.000883 516.938186,946.938186 C500.000883,963.875488 476.951434,973.270664 453,973 Z" id="Path" fill="#141325"></path>
                    <path d="M833.8,134.4 C833.8,130.5 829.3,126.6 823.8,125.8 L805.2,123 C799.469257,121.808542 794.991458,117.330743 793.8,111.6 L791,93 C790.2,87.6 786.3,83 782.4,83 C778.5,83 774.6,87.5 773.8,93 L771,111.6 C769.808542,117.330743 765.330743,121.808542 759.6,123 L741,125.8 C735.6,126.6 731,130.5 731,134.4 C731,138.3 735.5,142.2 741,143 L759.6,145.8 C765.35702,146.942537 769.857463,151.44298 771,157.2 L773.8,175.8 C774.6,181.2 778.5,185.8 782.4,185.8 C786.3,185.8 790.1,181.3 790.9,175.8 L793.9,154.3 C794.890978,148.591427 799.540156,144.227725 805.3,143.6 L823.8,142.3 C829.3,142.3 833.8,138.3 833.8,134.4 Z" id="Path" fill="#FFFFFF"></path>
                </g>
            </g>
        </g>
    </g>
</svg>